M48
; DRILL file {KiCad 7.0.9} date Tue Jan  2 14:00:42 2024
; FORMAT={-:-/ absolute / metric / decimal}
; #@! TF.CreationDate,2024-01-02T14:00:42+09:00
; #@! TF.GenerationSoftware,Kicad,Pcbnew,7.0.9
; #@! TF.FileFunction,Plated,1,2,PTH
FMAT,2
METRIC
; #@! TA.AperFunction,Plated,PTH,ViaDrill
T1C0.400
; #@! TA.AperFunction,Plated,PTH,ComponentDrill
T2C0.800
; #@! TA.AperFunction,Plated,PTH,ComponentDrill
T3C0.900
; #@! TA.AperFunction,Plated,PTH,ComponentDrill
T4C1.000
; #@! TA.AperFunction,Plated,PTH,ComponentDrill
T5C1.100
; #@! TA.AperFunction,Plated,PTH,ComponentDrill
T6C1.200
; #@! TA.AperFunction,Plated,PTH,ComponentDrill
T7C1.800
; #@! TA.AperFunction,Plated,PTH,ComponentDrill
T8C3.000
%
G90
G05
T1
X116.967Y-81.534
X118.364Y-81.534
X119.761Y-81.534
X121.158Y-81.534
X122.555Y-81.534
X123.952Y-81.534
X125.349Y-81.534
X126.746Y-81.534
X132.08Y-81.534
X132.08Y-92.583
X136.144Y-127.889
X139.192Y-127.889
X142.24Y-127.889
X145.288Y-127.889
X148.336Y-127.889
X161.036Y-72.517
X184.023Y-93.472
X184.023Y-143.891
T2
X84.074Y-137.668
X84.074Y-147.828
X85.958Y-150.368
X85.958Y-152.908
X85.958Y-155.448
X87.122Y-137.668
X87.122Y-147.828
X90.17Y-137.668
X90.17Y-147.828
X92.308Y-150.368
X92.308Y-152.908
X92.308Y-155.448
X93.218Y-137.668
X93.218Y-147.828
X96.266Y-137.668
X96.266Y-147.828
X98.658Y-150.368
X98.658Y-152.908
X98.658Y-155.448
X99.314Y-137.668
X99.314Y-147.828
X102.362Y-137.668
X102.362Y-147.828
X105.008Y-150.368
X105.008Y-152.908
X105.008Y-155.448
X105.41Y-137.668
X105.41Y-147.828
X108.458Y-137.668
X108.458Y-147.828
X111.306Y-150.368
X111.306Y-152.908
X111.306Y-155.448
X111.506Y-137.668
X111.506Y-147.828
X114.554Y-137.668
X114.554Y-147.828
X117.602Y-137.668
X117.602Y-147.828
X117.656Y-150.368
X117.656Y-152.908
X117.656Y-155.448
X120.65Y-137.668
X120.65Y-147.828
X123.698Y-137.668
X123.698Y-147.828
X124.058Y-150.368
X124.058Y-152.908
X124.058Y-155.448
X126.746Y-137.668
X126.746Y-147.828
X129.794Y-137.668
X129.794Y-147.828
X130.512Y-150.368
X130.512Y-152.908
X130.512Y-155.448
X134.62Y-129.667
X134.62Y-139.827
X137.654Y-129.667
X137.654Y-139.827
X138.938Y-145.796
X138.938Y-148.844
X138.938Y-151.892
X138.938Y-154.94
X140.716Y-129.667
X140.716Y-139.827
X143.764Y-129.667
X143.764Y-139.827
X146.812Y-129.667
X146.812Y-139.827
X149.098Y-145.796
X149.098Y-148.844
X149.098Y-151.892
X149.098Y-154.94
X149.86Y-129.667
X149.86Y-139.827
X150.876Y-75.946
X153.416Y-145.288
X153.416Y-155.448
X155.799Y-81.915
X155.799Y-84.963
X156.464Y-145.288
X156.464Y-155.448
X161.036Y-75.946
X161.407Y-147.584
X161.407Y-155.204
X163.322Y-75.946
X163.947Y-147.584
X163.947Y-155.204
X165.959Y-81.915
X165.959Y-84.963
X166.487Y-147.584
X166.487Y-155.204
X169.027Y-147.584
X169.027Y-155.204
X173.482Y-75.946
X173.599Y-147.584
X173.599Y-155.204
X176.139Y-147.584
X176.139Y-155.204
X178.679Y-147.584
X178.679Y-155.204
X179.527Y-59.538
X179.527Y-69.698
X179.527Y-71.984
X179.527Y-82.144
X181.219Y-147.584
X181.219Y-155.204
X182.575Y-59.538
X182.575Y-69.698
X182.575Y-71.984
X182.575Y-82.144
X185.623Y-59.538
X185.623Y-69.698
X185.623Y-71.984
X185.623Y-82.144
X187.55Y-90.257
X188.671Y-59.538
X188.671Y-69.698
X188.671Y-71.984
X188.671Y-82.144
X189.55Y-90.257
X194.691Y-88.987
X194.691Y-92.035
X204.851Y-88.987
X204.851Y-92.035
T3
X81.026Y-132.08
X83.566Y-132.08
X88.626Y-132.08
X91.166Y-132.08
X96.226Y-132.08
X98.766Y-132.08
X103.826Y-132.08
X106.366Y-132.08
X111.426Y-132.08
X113.966Y-132.08
X119.026Y-132.08
X121.566Y-132.08
X187.579Y-99.147
X187.579Y-101.687
X187.579Y-104.227
X187.579Y-106.767
X187.579Y-109.307
X187.579Y-111.847
X187.579Y-114.387
X187.579Y-116.927
X187.579Y-119.467
X187.579Y-122.007
X187.579Y-124.547
X187.579Y-127.087
X187.579Y-129.627
X187.579Y-132.167
X187.579Y-134.707
X187.579Y-137.247
X187.579Y-139.787
X187.579Y-142.327
X187.579Y-144.867
X210.439Y-99.147
X210.439Y-101.687
X210.439Y-104.227
X210.439Y-106.767
X210.439Y-109.307
X210.439Y-111.847
X210.439Y-114.387
X210.439Y-116.927
X210.439Y-119.467
X210.439Y-122.007
X210.439Y-124.547
X210.439Y-127.087
X210.439Y-129.627
X210.439Y-132.167
X210.439Y-134.707
X210.439Y-137.247
X210.439Y-139.787
X210.439Y-142.327
X210.439Y-144.867
T4
X77.216Y-54.483
X77.216Y-57.023
X77.216Y-59.563
X77.216Y-62.103
X77.216Y-64.643
X77.216Y-67.183
X77.216Y-69.723
X77.216Y-72.263
X77.216Y-74.803
X77.216Y-77.343
X77.216Y-79.883
X77.216Y-82.423
X77.216Y-84.963
X77.216Y-87.503
X77.216Y-90.043
X77.216Y-92.583
X77.216Y-95.123
X77.216Y-97.663
X77.216Y-100.203
X77.216Y-102.743
X77.216Y-105.283
X77.216Y-107.823
X77.216Y-110.363
X77.216Y-112.903
X79.756Y-54.483
X79.756Y-57.023
X79.756Y-59.563
X79.756Y-62.103
X79.756Y-64.643
X79.756Y-67.183
X79.756Y-69.723
X79.756Y-72.263
X79.756Y-74.803
X79.756Y-77.343
X79.756Y-79.883
X79.756Y-82.423
X79.756Y-84.963
X79.756Y-87.503
X79.756Y-90.043
X79.756Y-92.583
X79.756Y-95.123
X79.756Y-97.663
X79.756Y-100.203
X79.756Y-102.743
X79.756Y-105.283
X79.756Y-107.823
X79.756Y-110.363
X79.756Y-112.903
X100.076Y-56.255
X102.616Y-56.255
X105.156Y-56.255
X107.696Y-56.255
X143.258Y-54.483
X143.258Y-57.023
X143.258Y-59.563
X143.258Y-62.103
X143.258Y-64.643
X143.258Y-67.183
X143.258Y-69.723
X143.258Y-72.263
X143.258Y-74.803
X143.258Y-77.343
X143.258Y-79.883
X143.258Y-82.423
X143.258Y-84.963
X143.258Y-87.503
X143.258Y-90.043
X143.258Y-92.583
X143.258Y-95.123
X143.258Y-97.663
X143.258Y-100.203
X143.258Y-102.743
X143.258Y-105.283
X143.258Y-107.823
X143.258Y-110.363
X143.258Y-112.903
X145.798Y-54.483
X145.798Y-57.023
X145.798Y-59.563
X145.798Y-62.103
X145.798Y-64.643
X145.798Y-67.183
X145.798Y-69.723
X145.798Y-72.263
X145.798Y-74.803
X145.798Y-77.343
X145.798Y-79.883
X145.798Y-82.423
X145.798Y-84.963
X145.798Y-87.503
X145.798Y-90.043
X145.798Y-92.583
X145.798Y-95.123
X145.798Y-97.663
X145.798Y-100.203
X145.798Y-102.743
X145.798Y-105.283
X145.798Y-107.823
X145.798Y-110.363
X145.798Y-112.903
X210.693Y-86.487
X210.693Y-89.027
X210.693Y-91.567
T5
X152.146Y-57.848
X152.146Y-60.389
X152.146Y-68.788
X152.146Y-71.328
X165.45Y-105.867
X167.99Y-105.867
X170.53Y-105.867
X170.606Y-57.848
X170.606Y-60.389
X170.606Y-68.788
X170.606Y-71.328
X173.07Y-105.867
T6
X155.775Y-88.773
X155.775Y-91.313
X155.775Y-93.853
X155.775Y-96.393
X155.775Y-98.933
X180.775Y-88.773
X180.775Y-91.313
X180.775Y-93.853
X180.775Y-96.393
X180.775Y-98.933
X199.898Y-67.923
X199.898Y-70.463
X199.898Y-73.003
X199.898Y-75.543
X199.898Y-78.083
X199.898Y-80.623
T7
X157.136Y-47.244
X157.136Y-52.744
X161.336Y-47.244
X161.336Y-52.744
X165.536Y-47.244
X165.536Y-52.744
X169.736Y-47.244
X169.736Y-52.744
X173.936Y-47.244
X173.936Y-52.744
X178.136Y-47.244
X178.136Y-52.744
X182.336Y-47.244
X182.336Y-52.744
X186.536Y-47.244
X186.536Y-52.744
X190.736Y-47.244
X190.736Y-52.744
X194.936Y-47.244
X194.936Y-52.744
X199.136Y-47.244
X199.136Y-52.744
X203.336Y-47.244
X203.336Y-52.744
T8
X78.74Y-35.687
X78.74Y-153.035
X210.312Y-35.687
X210.312Y-153.035
T4
G00X205.077Y-58.547
M15
G01X206.077Y-58.547
M16
G05
G00X205.077Y-61.047
M15
G01X206.077Y-61.047
M16
G05
G00X205.077Y-63.547
M15
G01X206.077Y-63.547
M16
G05
G00X209.177Y-58.547
M15
G01X210.177Y-58.547
M16
G05
G00X209.177Y-61.047
M15
G01X210.177Y-61.047
M16
G05
G00X209.177Y-63.547
M15
G01X210.177Y-63.547
M16
G05
T0
M30
